<svg xmlns="http://www.w3.org/2000/svg" width="800" height="800" viewBox="0 0 800 800">
  <defs>
    <radialGradient id="glow" cx="50%" cy="45%" r="35%">
      <stop offset="0%" stop-color="rgb(167,139,250)" stop-opacity="0.1"/>
      <stop offset="100%" stop-color="rgb(167,139,250)" stop-opacity="0"/>
    </radialGradient>
    <style>
      @import url('https://fonts.googleapis.com/css2?family=Playfair+Display:ital,wght@0,600;1,600');
    </style>
  </defs>
  <rect width="800" height="800" fill="#07070c"/>
  <rect width="800" height="800" fill="url(#glow)"/>
  <g transform="translate(400, 350)">
    <polygon points="0,-160 138.56,-80 138.56,80 0,160 -138.56,80 -138.56,-80" fill="none" stroke="#C4B5FD" stroke-width="3.5"/>
    <polygon points="0,-115 99.59,-57.5 99.59,57.5 0,115 -99.59,57.5 -99.59,-57.5" fill="rgba(167,139,250,0.15)" stroke="#C4B5FD" stroke-width="2.5"/>
    <polygon points="0,-70 60.62,-35 60.62,35 0,70 -60.62,35 -60.62,-35" fill="rgba(196,181,253,0.35)" stroke="#DDD6FE" stroke-width="1.5"/>
    <polygon points="0,-25 21.65,-12.5 21.65,12.5 0,25 -21.65,12.5 -21.65,-12.5" fill="rgba(221,214,254,0.5)"/>
  </g>
  <text x="400" y="560" text-anchor="middle" fill="white" font-family="Playfair Display, Georgia, serif" font-weight="600" font-size="52">Crystal <tspan font-style="italic">Almanac</tspan></text>
  <text x="400" y="630" text-anchor="middle" fill="#8b8b9e" font-family="Plus Jakarta Sans, system-ui, sans-serif" font-weight="300" font-size="18" letter-spacing="3">THE MODERN CRYSTAL ENCYCLOPEDIA</text>
</svg>